/* XPM */
static char * icon_xpm[] = {
"16 16 84 1",
" 	c None",
".	c #409EE9",
"+	c #439FE7",
"@	c #64B9F1",
"#	c #80CFFA",
"$	c #8EDAFE",
"%	c #81CFFA",
"&	c #65BBF2",
"*	c #429EE7",
"=	c #3D9AE5",
"-	c #8ED8FC",
";	c #84CFFA",
">	c #86D0FB",
",	c #89D4FC",
"'	c #89D3FB",
")	c #3996E1",
"!	c #92DDFE",
"~	c #89D2F8",
"{	c #7DC5F4",
"]	c #7AC7F4",
"^	c #52A8E5",
"/	c #3490DB",
"(	c #52A8E6",
"_	c #84CEF7",
":	c #7AC2F2",
"<	c #89D3F9",
"[	c #76BCED",
"}	c #74BFEE",
"|	c #3089D4",
"1	c #84CDF4",
"2	c #72B7EA",
"3	c #7EC5F1",
"4	c #70B5E8",
"5	c #4498D8",
"6	c #2A82CD",
"7	c #84CDF3",
"8	c #77BDEC",
"9	c #7EC5F0",
"0	c #267BC6",
"a	c #257AC5",
"b	c #1E72BD",
"c	c #1F73BE",
"d	c #196BB6",
"e	c #61B8EB",
"f	c #57B0E7",
"g	c #6ABFEE",
"h	c #3084C7",
"i	c #4EA8E3",
"j	c #1464AF",
"k	c #48B0EB",
"l	c #34A3E6",
"m	c #52B7EE",
"n	c #44A7E4",
"o	c #3BA8E8",
"p	c #0E5DA8",
"q	c #39B3F1",
"r	c #44B8F3",
"s	c #24A8EE",
"t	c #237EC3",
"u	c #227EC2",
"v	c #37A9E7",
"w	c #2AABEF",
"x	c #43B8F3",
"y	c #0A57A2",
"z	c #40BFF9",
"A	c #2AB5F7",
"B	c #1CAFF6",
"C	c #1FB1F7",
"D	c #27B5F8",
"E	c #34BAF8",
"F	c #05519C",
"G	c #0658A3",
"H	c #1A84C9",
"I	c #1FA7EA",
"J	c #20B9FC",
"K	c #1FA6EA",
"L	c #1982C7",
"M	c #0959A3",
"N	c #023A73",
"O	c #023364",
"P	c #02386E",
"Q	c #024B93",
"R	c #024D98",
"S	c #024990",
"                ",
"      .....   . ",
"    +@#$$%&*=== ",
"    -;>,,>;')!) ",
"   ~{]^//(_:<_/ ",
"   [}|   ||123| ",
"   45    678896 ",
"        0aaaaa0 ",
" bcccccb        ",
" deffgd    hi   ",
" jklmjj   jno   ",
" pqrsqtppuvwx   ",
" yzyABCDDCBE    ",
" FFFGHIJJKLM    ",
" NO  PQRRS      ",
"                "};
