/* XPM */
static char * regex_renamer_xpm[] = {
"48 48 406 2",
"  	c None",
". 	c #4773AC",
"+ 	c #668DBB",
"@ 	c #799AC6",
"# 	c #84A5CC",
"$ 	c #85A6CD",
"% 	c #83A3CC",
"& 	c #799DC7",
"* 	c #648BBD",
"= 	c #4776AE",
"- 	c #3666A5",
"; 	c #4371AC",
"> 	c #83A2CB",
", 	c #ADC5E0",
"' 	c #BBD0E8",
") 	c #BAD0E8",
"! 	c #BAD0E7",
"~ 	c #B9CEE6",
"{ 	c #B8CEE6",
"] 	c #B7CEE6",
"^ 	c #B8CFE6",
"/ 	c #B3CAE5",
"( 	c #96B3D6",
"_ 	c #6D94C2",
": 	c #3C6CA9",
"< 	c #3465A4",
"[ 	c #82A2CB",
"} 	c #BACFE6",
"| 	c #BDD1E8",
"1 	c #BBD1E8",
"2 	c #B8CFE7",
"3 	c #B7CDE6",
"4 	c #B5CDE5",
"5 	c #B4CCE5",
"6 	c #B3CBE5",
"7 	c #B2CAE5",
"8 	c #B0C9E4",
"9 	c #AFC8E3",
"0 	c #AFC9E4",
"a 	c #B5CDE6",
"b 	c #B6CDE6",
"c 	c #92B1D4",
"d 	c #5480B5",
"e 	c #3769A5",
"f 	c #4370AB",
"g 	c #A6BFDD",
"h 	c #BED3E8",
"i 	c #BDD2E8",
"j 	c #B9CFE7",
"k 	c #B4CBE5",
"l 	c #B1CAE4",
"m 	c #ADC7E3",
"n 	c #ACC6E3",
"o 	c #AAC5E2",
"p 	c #ABC6E3",
"q 	c #9EBBDB",
"r 	c #547EB5",
"s 	c #83A6CF",
"t 	c #3667A6",
"u 	c #416FAA",
"v 	c #ADC5DF",
"w 	c #BFD3E9",
"x 	c #BCD1E8",
"y 	c #B6CDE5",
"z 	c #B5CCE5",
"A 	c #AEC8E3",
"B 	c #A9C4E1",
"C 	c #A7C3E1",
"D 	c #A7C3E0",
"E 	c #94B2D5",
"F 	c #4371AB",
"G 	c #799ECA",
"H 	c #A5C2E1",
"I 	c #3667A5",
"J 	c #A5BFDD",
"K 	c #C0D3E9",
"L 	c #B8CEE7",
"M 	c #ADC8E3",
"N 	c #ADC6E3",
"O 	c #ABC5E2",
"P 	c #A8C4E1",
"Q 	c #A6C2E0",
"R 	c #A5C1E0",
"S 	c #B0CAE4",
"T 	c #7094C2",
"U 	c #7198C5",
"V 	c #9DBCDD",
"W 	c #7799C5",
"X 	c #C0D4E9",
"Y 	c #B8CDE6",
"Z 	c #9EB9D9",
"` 	c #9BB7D8",
" .	c #A2BBDB",
"..	c #AAC3DF",
"+.	c #B7CDE5",
"@.	c #A7C2E0",
"#.	c #A5C2E0",
"$.	c #A4C1E0",
"%.	c #A2C0E0",
"&.	c #98B8DC",
"*.	c #8FB3D8",
"=.	c #A0BEDF",
"-.	c #82A6CF",
";.	c #648DBE",
">.	c #A0BEDE",
",.	c #78A3D1",
"'.	c #3B6BA7",
").	c #B9CFE6",
"!.	c #B4CBE4",
"~.	c #82A4CB",
"{.	c #4B77AE",
"].	c #396AA8",
"^.	c #3C6BA8",
"/.	c #3A6BA7",
"(.	c #3969A7",
"_.	c #3A6AA7",
":.	c #507CB3",
"<.	c #779AC5",
"[.	c #B7CFE6",
"}.	c #9CBCDD",
"|.	c #89AED6",
"1.	c #7EA7D3",
"2.	c #7CA6D2",
"3.	c #7CA6D3",
"4.	c #95B7DB",
"5.	c #A2BFDE",
"6.	c #A4C0E0",
"7.	c #7BA5D2",
"8.	c #729FCF",
"9.	c #7094C1",
"0.	c #C1D4E9",
"a.	c #BED2E8",
"b.	c #81A3C9",
"c.	c #3C6BA7",
"d.	c #396AA7",
"e.	c #3C6CAA",
"f.	c #4272AE",
"g.	c #3767A5",
"h.	c #3E6CA9",
"i.	c #7397C4",
"j.	c #A9C2DE",
"k.	c #AAC5E1",
"l.	c #9BBADD",
"m.	c #8CB1D8",
"n.	c #81A9D4",
"o.	c #7FA8D3",
"p.	c #7DA6D2",
"q.	c #7AA4D1",
"r.	c #8AB0D7",
"s.	c #7FA7D3",
"t.	c #739FCF",
"u.	c #ABC6E2",
"v.	c #3567A5",
"w.	c #A3BDDB",
"x.	c #BDD1E7",
"y.	c #6188BA",
"z.	c #4472AF",
"A.	c #4B79B3",
"B.	c #4E7BB5",
"C.	c #3969A6",
"D.	c #5480B6",
"E.	c #8EAFD4",
"F.	c #9EBCDE",
"G.	c #8AAFD7",
"H.	c #80A8D3",
"I.	c #79A4D1",
"J.	c #77A2D0",
"K.	c #75A1D0",
"L.	c #73A0CF",
"M.	c #3968A8",
"N.	c #BCD0E7",
"O.	c #6B90BF",
"P.	c #3B6BA8",
"Q.	c #527EB8",
"R.	c #5581BA",
"S.	c #5984BC",
"T.	c #4B79B4",
"U.	c #5F88BA",
"V.	c #9BB9DB",
"W.	c #96B7DB",
"X.	c #7FA8D4",
"Y.	c #7CA5D2",
"Z.	c #76A2D0",
"`.	c #9CB7D8",
" +	c #5984BD",
".+	c #7FA2CC",
"++	c #A1BEDF",
"@+	c #83ABD5",
"#+	c #76A1D0",
"$+	c #74A0CF",
"%+	c #527DB1",
"&+	c #3466A4",
"*+	c #547FB4",
"=+	c #87ADD6",
"-+	c #3868A6",
";+	c #3C6CA8",
">+	c #618ABC",
",+	c #B2CBE5",
"'+	c #5A84B9",
")+	c #80A9D4",
"!+	c #4F7BB4",
"~+	c #A5C1DF",
"{+	c #84ABD5",
"]+	c #4572AC",
"^+	c #A2BEDE",
"/+	c #3C6BAA",
"(+	c #A2BEDD",
"_+	c #ACC6E2",
":+	c #ACC7E3",
"<+	c #3567A6",
"[+	c #3767A6",
"}+	c #C2D6EA",
"|+	c #C5D7EB",
"1+	c #C4D7EB",
"2+	c #C3D7EB",
"3+	c #C2D5EA",
"4+	c #C1D5EA",
"5+	c #C0D4EA",
"6+	c #BFD4E9",
"7+	c #BED3E9",
"8+	c #8FAFD4",
"9+	c #9EBDDE",
"0+	c #98B9DC",
"a+	c #97B8DB",
"b+	c #9FBCDB",
"c+	c #3969A5",
"d+	c #ABC4E2",
"e+	c #3D6CA9",
"f+	c #A3C0DF",
"g+	c #4A78B1",
"h+	c #9EBCDD",
"i+	c #5781B5",
"j+	c #9DBDDE",
"k+	c #A1BFDF",
"l+	c #6D92C1",
"m+	c #3B6EAC",
"n+	c #96B8DB",
"o+	c #9ABBDD",
"p+	c #96B5D7",
"q+	c #4674AD",
"r+	c #3869A7",
"s+	c #5084BD",
"t+	c #3768A6",
"u+	c #BBD1E7",
"v+	c #9CBCDE",
"w+	c #A6C3E1",
"x+	c #ACC6E1",
"y+	c #638EBE",
"z+	c #3C6EAC",
"A+	c #4476B4",
"B+	c #538AC3",
"C+	c #95B6DB",
"D+	c #94B6DB",
"E+	c #8DB1D8",
"F+	c #7BA6D2",
"G+	c #89AFD7",
"H+	c #7EA5D0",
"I+	c #4F7EB5",
"J+	c #A4C1E1",
"K+	c #386BAA",
"L+	c #4375B3",
"M+	c #568BC6",
"N+	c #4A81BC",
"O+	c #A9C5E1",
"P+	c #93B6DA",
"Q+	c #6B9BCC",
"R+	c #6999CC",
"S+	c #6998CC",
"T+	c #79A2D0",
"U+	c #5785BB",
"V+	c #3869A6",
"W+	c #407CC4",
"X+	c #9BBADF",
"Y+	c #B3CBE6",
"Z+	c #799FCF",
"`+	c #3F73B2",
" @	c #376AA8",
".@	c #4C81BA",
"+@	c #568BC5",
"@@	c #548BC5",
"#@	c #3E70AE",
"$@	c #9FBEDE",
"%@	c #ABC4E0",
"&@	c #AFC9E3",
"*@	c #97B9DC",
"=@	c #93B5DA",
"-@	c #7AA4D2",
";@	c #6B9ACC",
">@	c #6A99CC",
",@	c #6898CB",
"'@	c #6797CB",
")@	c #709DCE",
"!@	c #7DA7D2",
"~@	c #6996C8",
"{@	c #5381BA",
"]@	c #3E6EAA",
"^@	c #3668A7",
"/@	c #386AAA",
"(@	c #386BAC",
"_@	c #3769AA",
":@	c #3F70AE",
"<@	c #4E83BB",
"[@	c #598EC7",
"}@	c #568DC6",
"|@	c #5087C2",
"1@	c #688FBE",
"2@	c #B1C9E4",
"3@	c #8BB1D7",
"4@	c #6798CB",
"5@	c #6697CB",
"6@	c #6596CB",
"7@	c #6496CA",
"8@	c #6395CA",
"9@	c #6C9CCD",
"0@	c #719ECF",
"a@	c #74A0D0",
"b@	c #709ECE",
"c@	c #6796C9",
"d@	c #5F8FC6",
"e@	c #5C8CC3",
"f@	c #5B8CC3",
"g@	c #5E8FC6",
"h@	c #6092CA",
"i@	c #5C91C8",
"j@	c #588DC7",
"k@	c #568CC6",
"l@	c #538AC5",
"m@	c #3E70AF",
"n@	c #3666A4",
"o@	c #7EA2CB",
"p@	c #5C85BA",
"q@	c #8FB2D8",
"r@	c #6D9BCD",
"s@	c #6898CC",
"t@	c #6294CA",
"u@	c #6194C9",
"v@	c #6093C9",
"w@	c #5F93C9",
"x@	c #5E92C8",
"y@	c #6094CA",
"z@	c #6093CA",
"A@	c #5F92C9",
"B@	c #5A8FC8",
"C@	c #588DC6",
"D@	c #558CC6",
"E@	c #538BC5",
"F@	c #497EBB",
"G@	c #3566A5",
"H@	c #BACFE7",
"I@	c #95B2D7",
"J@	c #3968A6",
"K@	c #6C95C5",
"L@	c #8AB0D8",
"M@	c #6596CA",
"N@	c #6495CA",
"O@	c #6193C9",
"P@	c #5E91C8",
"Q@	c #5D91C8",
"R@	c #5C90C8",
"S@	c #5B8FC7",
"T@	c #5A8FC7",
"U@	c #588EC6",
"V@	c #578DC6",
"W@	c #558CC5",
"X@	c #4B80BD",
"Y@	c #3566A4",
"Z@	c #9CB9DA",
"`@	c #3869A5",
" #	c #3F6FAA",
".#	c #6F99C8",
"+#	c #85ABD5",
"@#	c #76A2D1",
"##	c #5B90C7",
"$#	c #487DBB",
"%#	c #3B6AA7",
"&#	c #3E6EA9",
"*#	c #628EC1",
"=#	c #7BA4D1",
"-#	c #77A2D1",
";#	c #6D9CCD",
">#	c #6092C9",
",#	c #5B90C8",
"'#	c #598FC7",
")#	c #588EC7",
"!#	c #5187C2",
"~#	c #3D71AD",
"{#	c #3667A3",
"]#	c #5D8AC0",
"^#	c #6C9ACB",
"/#	c #719FCF",
"(#	c #6C9BCD",
"_#	c #6899CC",
":#	c #6597CB",
"<#	c #6094C9",
"[#	c #598EC6",
"}#	c #4E83BE",
"|#	c #3F71AD",
"1#	c #3465A2",
"2#	c #3D6DA9",
"3#	c #4575AF",
"4#	c #4679B1",
"5#	c #4778B4",
"6#	c #4677B2",
"7#	c #3F6FAC",
"8#	c #396AA6",
"9#	c #3566A3",
"                                                                                                ",
"                                                                                                ",
"                                                                                                ",
"                                . + @ # $ % & * = -                                             ",
"                          ; > , ' ) ! ~ { ] { { ^ / ( _ :                           <           ",
"                        [ } | 1 ! 2 3 4 5 6 7 8 9 0 7 a b c d                     e <           ",
"                    f g h i 1 ! j { b 4 k 7 l 8 9 m n o p l { q r                 s t           ",
"                  u v w i x ' ! 2 3 y z 6 7 l 9 A m p o B C D 9 2 E F           G H I           ",
"                  J K h i x ) ! j L 3 4 7 l 8 9 M N O o P C Q R R S 5 T       U V C I           ",
"                W X w h i i Y g Z `  ...Y ! +.7 A n o B C @.#.$.%.&.*.=.-.I ;.>.,.P I           ",
"              '.).X K !.~.{.].^./.(._._.'.:.<.` [.a A B C Q #.}.|.1.2.3.4.5.6.7.8.o I           ",
"              9.0.a.b.c.d.e.f.g.                h.i.j.2 k.l.m.n.o.p.7.q.,.r.s.t.8.u.v.          ",
"              w.x.y._.z.A.B.C.                        D.E.F.G.H.1.2.7.I.J.K.L.8.8.m <           ",
"            M.N.O.P.Q.R.S.T.                              U.V.W.X.Y.q.,.Z.K.t.8.8.A <           ",
"              `._. +                                        P..+++@+I.,.#+$+8.8.8.0 <           ",
"              %+          &+                                    *+Q =+J.K.L.8.8.8.l <           ",
"            -+;+                                                >+6.2.Z.$+t.8.8.8.,+<           ",
"            <                                                 '+$.)+J.K.L.8.8.8.8.5 <           ",
"            <                                               !+~+{+,.Z.K.t.8.8.8.8.a <           ",
"            <                                             ]+^+G.I.,.#+$+8.8.8.8.8.] <           ",
"            <                                           /+(+_+:+:+m A A 0 l 6 a ] 2 <           ",
"                                                      < < < < < < < < < < < < < < < <           ",
"            < < < < < < < < <+g.g.g.[+h.<                                                       ",
"            I }+|+1+2+}+3+4+5+6+w 7+i 8+                                            <           ",
"            I 4+9+0+0+0+0+0+0+0+a+9 b+c+                                            <           ",
"            I w 9+0+0+0+0+0+0+a+B d+e+                                              <           ",
"            I 7+9+0+0+0+0+0+a+f+6 g+                                                <           ",
"            I i 9+0+0+0+0+0+h+' i+                                                  t           ",
"            I x j+0+0+0+0+a+k+L l+                                                m+            ",
"            I 1 j+0+0+0+a+a+n+o+7 p+q+                                          r+s+t+          ",
"            I u+v+0+0+0+a+a+n+4.W.w+x+y+t                                     z+A+B+            ",
"            I x o+0+0+a+a+n+4.C+D+E+F+G+H+I+I                       J+      K+L+M+N+            ",
"            I x o+0+f+O+n+4.4.P+)+Q+R+S+K.{+T+U+V+              W+X+Y+Z+`+ @.@+@@@#@            ",
"            I 1 o+$@~ %@&@*@=@-@;@>@R+,@'@'@)@-@!@~@{@]@<+^@/@(@(@_@^@:@<@[@}@@@|@I             ",
"            I ! 9+] 1@- s 2@3@;@>@R+,@4@5@6@7@8@6@9@0@a@b@c@d@e@f@g@h@i@j@k@@@l@m@              ",
"            n@! ] o@      p@q@{+r@s@4@5@6@7@8@t@u@v@w@x@v@y@z@A@i@B@C@}@D@@@E@F@                ",
"            G@H@I@          J@K@L@I.s@5@M@N@8@t@O@v@A@P@Q@R@S@T@[@U@V@k@W@@@X@Y@                ",
"            G@Z@`@               #.#+#@#,@8@t@u@v@A@x@Q@R@##T@[@U@V@k@k@@@$#G@                  ",
"            < %#                    &#*#=#-#;#6@>#x@Q@R@,#T@'#)#U@)#}@!#~#                      ",
"            <                           {#= ]#^#/#(#_#:#t@<#>#P@[#}#|#                          ",
"                                              1#I 2#3#4#5#6#7#8#9#                              ",
"                                                                                                ",
"                                                                                                ",
"                                                                                                ",
"                                                                                                ",
"                                                                                                ",
"                                                                                                ",
"                                                                                                "};
